PathFileType	4	(X/Y/Z)	./resultDataOpenSim/trcMotMarkerGrf/sub09/qtm-03-02.trc
DataRate	CameraRate	NumFrames	NumMarkers	Units	OrigDataRate	OrigDataStartFrame	OrigNumFrames
250.000000	250.000000	12	24	m	250.000000	435	496
Frame#	Time	L.Toe.Tip			R.Toe.Tip			L.Ankle.Lat			R.Ankle.Lat			L.Ankle.Med			R.Ankle.Med			L.Heel			R.Heel			L.Knee.Lat			R.Knee.Lat			L.Knee.Med			R.Knee.Med			L.Thigh.Upper			R.Thigh.Upper			L.ASIS			R.ASIS			V.Sacral			L.Acromium			R.Acromium			C7			L.Elbow			R.Elbow			L.Wrist.Lat			R.Wrist.Lat
		X1	Y1	Z1	X2	Y2	Z2	X3	Y3	Z3	X4	Y4	Z4	X5	Y5	Z5	X6	Y6	Z6	X7	Y7	Z7	X8	Y8	Z8	X9	Y9	Z9	X10	Y10	Z10	X11	Y11	Z11	X12	Y12	Z12	X13	Y13	Z13	X14	Y14	Z14	X15	Y15	Z15	X16	Y16	Z16	X17	Y17	Z17	X18	Y18	Z18	X19	Y19	Z19	X20	Y20	Z20	X21	Y21	Z21	X22	Y22	Z22	X23	Y23	Z23	X24	Y24	Z24

435	1.736	1.6804184	0.098702823	-0.011905262	0.99969672	0.039685179	0.14473793	1.5274834	0.080052588	-0.044478498	0.86593592	0.09268007	0.17470736	1.5490833	0.10616029	0.048677022	0.88919285	0.12545524	0.083233057	1.4749147	0.024273406	0.00010163814	0.79313887	0.094131719	0.12256065	1.4077305	0.48204795	-0.074333653	1.1171081	0.48222314	0.22816989	1.409258	0.47291937	0.052179237	1.1045266	0.47247914	0.10218214	1.227576	0.85734858	-0.10507348	1.1793417	0.88025087	0.26695176	1.2940915	0.9498606	-0.042731219	1.2910336	0.96078716	0.19910083	1.1205072	0.99967826	0.064475348	1.2390801	1.4059611	-0.10882214	1.2422931	1.4228111	0.22256165	1.1735525	1.4592844	0.059072342	1.0910697	1.0698128	-0.15535587	1.1449925	1.0662166	0.32490841	1.1860322	0.83656268	-0.22848908	1.3567782	0.88689756	0.30432497
436	1.74	1.6832645	0.092366693	-0.011612189	1.0000005	0.039773824	0.14498049	1.5296231	0.07872179	-0.044158845	0.86720432	0.094711504	0.17516767	1.5517084	0.10460284	0.049020642	0.89098266	0.12722596	0.083726466	1.4754477	0.024896358	0.00044120614	0.79450741	0.097255892	0.12296331	1.4139772	0.48142723	-0.074921757	1.1230035	0.48118154	0.22818159	1.4159094	0.47297558	0.051573467	1.1111797	0.47147175	0.10281381	1.2328968	0.85698698	-0.10604058	1.184089	0.87933811	0.26663964	1.2998926	0.94941816	-0.043525301	1.2970953	0.95981381	0.19836082	1.1262484	0.9988231	0.063808477	1.2443717	1.4051454	-0.10954115	1.2475689	1.4219207	0.22188383	1.1787316	1.4584231	0.058366665	1.0966269	1.0688505	-0.15608821	1.1502187	1.0654147	0.32410793	1.1918724	0.83565503	-0.22901993	1.3613881	0.88548374	0.30438476
437	1.744	1.6861643	0.086144355	-0.011279395	1.0002963	0.039854055	0.14524996	1.531754	0.077781352	-0.043892296	0.86864801	0.096840736	0.17569865	1.5545057	0.10331481	0.049274108	0.89290079	0.12909237	0.084237073	1.4761631	0.025892979	0.0010730257	0.79601553	0.10054214	0.12335994	1.4201557	0.48096686	-0.075563	1.1289672	0.48005401	0.22815637	1.4237142	0.47313389	0.05127758	1.1178169	0.47044279	0.10328402	1.2382842	0.85660837	-0.10702978	1.1887812	0.87849469	0.26632471	1.3056212	0.94908641	-0.044303541	1.30317	0.95885938	0.19760254	1.1319754	0.99806407	0.063247686	1.2496611	1.4043781	-0.11028415	1.2528598	1.4210716	0.22120582	1.1839256	1.4576495	0.057653616	1.1022028	1.0679074	-0.15682271	1.155454	1.0646497	0.32329568	1.1977661	0.83478122	-0.22952696	1.3659436	0.88407242	0.30445179
438	1.748	1.6889793	0.080588224	-0.010912245	1.0005935	0.039928295	0.14550667	1.5339074	0.077136199	-0.043761242	0.87036028	0.099077028	0.17638216	1.5573885	0.10221549	0.049382805	0.89494793	0.13104864	0.084774974	1.4771673	0.02696941	0.0018541383	0.79767027	0.10399213	0.12378213	1.4263127	0.4807636	-0.076226696	1.1351471	0.47884881	0.22816632	1.4338983	0.4735782	0.051652865	1.1243516	0.46923968	0.10336414	1.2438234	0.85621872	-0.10804669	1.1918931	0.87791953	0.26650585	1.3112813	0.94885258	-0.045074031	1.3092493	0.9579287	0.1968265	1.1376816	0.99741148	0.062786166	1.2549493	1.4036638	-0.11104921	1.2581575	1.4202763	0.22053158	1.1891581	1.4569738	0.056934938	1.1078056	1.0669925	-0.15755851	1.1606193	1.0639103	0.32243075	1.203713	0.83393977	-0.230012	1.3704394	0.88266136	0.30452996
439	1.752	1.6916029	0.075874485	-0.010477936	1.00092	0.040023201	0.14571743	1.5361164	0.076656055	-0.0437958	0.87233003	0.10143195	0.17722778	1.5602288	0.10126827	0.049333392	0.89713272	0.1330892	0.085346281	1.4784467	0.027922124	0.0025787943	0.79948555	0.10761276	0.12424901	1.4325841	0.480898	-0.076903001	1.1417549	0.47761997	0.22827952	1.4463419	0.47442719	0.052668566	1.1310056	0.46787056	0.10323026	1.2495188	0.85585545	-0.10907256	1.1935876	0.8775463	0.2671542	1.3168796	0.94870267	-0.045849587	1.3153248	0.95703049	0.19603574	1.1433415	0.99686985	0.062376886	1.2602339	1.4030073	-0.11182981	1.263452	1.4195386	0.21986175	1.1944517	1.4564097	0.056207856	1.1134501	1.0661213	-0.15828571	1.1655965	1.0631783	0.32145841	1.2097171	0.83313099	-0.23047737	1.3748782	0.88125504	0.3046203
440	1.756	1.6940044	0.071868273	-0.0099164617	1.0012995	0.040163986	0.14587801	1.5383958	0.076252685	-0.0439639	0.87441778	0.10392118	0.17813105	1.5629143	0.10046522	0.049155409	0.89947055	0.13521785	0.08594673	1.4798555	0.028737384	0.0029828738	0.80148146	0.11141537	0.12475377	1.439115	0.48141531	-0.077584967	1.1488682	0.47644341	0.22846669	1.458969	0.47562026	0.053732264	1.1379894	0.46644387	0.10319116	1.2552748	0.8555778	-0.1100597	1.1965594	0.87694423	0.26744977	1.322421	0.9486338	-0.046639621	1.3213851	0.95617775	0.19523751	1.1489382	0.9964289	0.06200402	1.2655089	1.402422	-0.1126203	1.2687366	1.4188586	0.21919702	1.1998079	1.455966	0.055466956	1.1191438	1.0653061	-0.15899739	1.1703197	1.06243	0.32034428	1.2157801	0.83236368	-0.23092368	1.3792715	0.87986118	0.30471944
441	1.76	1.6961979	0.068329792	-0.0092082568	1.0017322	0.040351631	0.146009	1.5407092	0.075900027	-0.044209397	0.87646299	0.10654336	0.1789563	1.565367	0.099775241	0.048908461	0.90197794	0.13744688	0.086561623	1.4812313	0.029488193	0.0029297748	0.80368276	0.11541187	0.12526466	1.4459513	0.48230379	-0.078228384	1.1563071	0.47537627	0.22864389	1.4696424	0.47701671	0.054219796	1.145243	0.46502363	0.10331105	1.2609882	0.85544534	-0.1109656	1.2038872	0.87566506	0.26645142	1.3279185	0.94865668	-0.04744705	1.3274169	0.95538236	0.19443895	1.1544844	0.99605883	0.061694416	1.2707711	1.4019247	-0.113419	1.2740147	1.4182448	0.21853647	1.2051893	1.4556295	0.054711509	1.1248754	1.0645433	-0.15970764	1.1748735	1.0616647	0.31911887	1.2218989	0.83165047	-0.23134818	1.3836325	0.87849106	0.30482122
442	1.764	1.6981992	0.065019073	-0.0084170635	1.0022074	0.040567386	0.14613333	1.5429757	0.075597624	-0.044495888	0.87842344	0.1092719	0.17963552	1.5675673	0.099145099	0.048640285	0.904677	0.13977973	0.08717213	1.482494	0.030222265	0.0025311044	0.80611435	0.11960989	0.12573998	1.453005	0.4834826	-0.078752469	1.1637467	0.4743998	0.22873925	1.4781213	0.47854756	0.054036053	1.1525994	0.46360312	0.10341918	1.2666373	0.85549814	-0.11178736	1.2156955	0.87373169	0.26411145	1.3333963	0.94878602	-0.048268688	1.3334067	0.95464957	0.19364276	1.1600205	0.99572182	0.061482393	1.2760242	1.4015211	-0.11422346	1.2793023	1.4177151	0.21787267	1.2105483	1.4553682	0.053946515	1.1306288	1.063827	-0.16043978	1.1794504	1.0609337	0.31787518	1.2280694	0.83100322	-0.23174507	1.3879599	0.87715432	0.30492256
443	1.768	1.7000091	0.061720162	-0.0076510935	1.002726	0.04079452	0.14626315	1.5451165	0.07532827	-0.04481331	0.880402	0.11211141	0.18017913	1.5695641	0.09853199	0.04835939	0.90759957	0.14220494	0.087766714	1.4836291	0.030964605	0.0020032033	0.8087943	0.12401053	0.12614853	1.4601172	0.48480633	-0.079092658	1.1710072	0.47343491	0.22872698	1.4855417	0.48019802	0.053498188	1.1600908	0.46217519	0.10343063	1.2722627	0.85575281	-0.11255569	1.2287451	0.87165024	0.26140379	1.3388804	0.9490342	-0.049100008	1.3393497	0.95397693	0.1928449	1.1655852	0.9953964	0.061374097	1.2812727	1.4012021	-0.11502646	1.2846221	1.4172834	0.21719219	1.2158667	1.4551423	0.05317906	1.1364085	1.0631851	-0.16118413	1.1841924	1.0603198	0.31669991	1.2342898	0.83043176	-0.23211041	1.392229	0.87585175	0.30502664
444	1.772	1.7016255	0.058303653	-0.006978828	1.0033062	0.041036614	0.14639832	1.5471015	0.07505098	-0.045155162	0.88248985	0.11518374	0.18064446	1.5714268	0.097911633	0.048061476	0.91077576	0.14471199	0.088349184	1.4846446	0.031733476	0.00147973	0.81173224	0.12860886	0.12648076	1.4671618	0.48609403	-0.079262607	1.1782252	0.4724429	0.22865509	1.4929368	0.48191869	0.052930291	1.1678741	0.46077053	0.10345357	1.2779054	0.85621107	-0.11330734	1.2397267	0.86990234	0.25933914	1.3443901	0.94941397	-0.049941236	1.3452535	0.9533563	0.19203463	1.1711924	0.99508259	0.061335546	1.2865157	1.4009567	-0.1158182	1.2899865	1.4169525	0.21648255	1.2211442	1.4549119	0.052417216	1.142232	1.0626604	-0.16189803	1.1891221	1.0598868	0.31562346	1.2405608	0.82994263	-0.23244598	1.3964112	0.87457955	0.30513704
445	1.776	1.7030692	0.054805856	-0.0063862437	1.0039588	0.041309795	0.14653468	1.5489629	0.074725147	-0.045495501	0.88452634	0.11873335	0.18110179	1.573189	0.097268673	0.047772895	0.91421966	0.14730108	0.088931433	1.4855647	0.032509681	0.00096845444	0.81493314	0.13339792	0.12673806	1.4740861	0.48718425	-0.079361801	1.1857272	0.4714613	0.22860259	1.5006795	0.48361193	0.052486242	1.1759253	0.45943035	0.1035853	1.2835875	0.85686632	-0.11406929	1.2479684	0.86857544	0.25812873	1.3499381	0.94993563	-0.050796301	1.3511338	0.95278343	0.19120001	1.1768399	0.99478272	0.061316961	1.2917503	1.4007799	-0.11658918	1.2953815	1.4167165	0.21574027	1.2263749	1.4546494	0.05166808	1.1480999	1.0622503	-0.16255963	1.1942076	1.0596499	0.31463391	1.2468812	0.82953964	-0.23275539	1.4005044	0.87333778	0.30525119
446	1.78	1.7043987	0.051420201	-0.0058168826	1.0046518	0.041621537	0.14667041	1.5507716	0.074339767	-0.045781097	0.88617617	0.12295784	0.18159846	1.5748466	0.096596623	0.047565053	0.91792158	0.14998167	0.089521744	1.4864104	0.033245006	0.00038196978	0.81839666	0.13837908	0.12691936	1.4808703	0.48798636	-0.07951019	1.1937723	0.47053269	0.22859808	1.5084393	0.48514897	0.052119059	1.1840832	0.45815568	0.10381078	1.2893199	0.85770098	-0.11485684	1.2546379	0.86749825	0.25739695	1.3555352	0.95059436	-0.051667796	1.3570066	0.9522637	0.19033568	1.1825211	0.99449161	0.061278437	1.2969767	1.400669	-0.11733283	1.3007716	1.4165632	0.21497552	1.2315559	1.4543563	0.050934661	1.1539953	1.0619113	-0.16318432	1.1994114	1.0595797	0.31369877	1.253252	0.82922519	-0.23303765	1.4045297	0.87213182	0.3053602
